<?xml version="1.0" encoding="utf-8" ?><svg xmlns="http://www.w3.org/2000/svg" xmlns:xlink="http://www.w3.org/1999/xlink" width="500" height="500" viewBox="0 0 500 500"><path fill="#0D3B66" d="M68.0379 87.0411C71.96 88.2312 69.9195 95.3603 70.3767 96.875C71.5187 97.1014 75.9611 96.9746 77.4432 96.9744L93.1843 97.0003L140.477 97.0494C148.65 97.0439 157.421 96.8201 165.542 97.0468C168.598 99.713 171.394 105.19 173.615 108.768L181.327 120.975L199.511 149.825C207.379 161.801 215.14 173.848 222.794 185.962C227.573 193.621 232.402 201.335 237.28 208.937C240.389 213.781 246.126 224.036 249.877 228.241C252.727 222.946 255.569 218.983 258.73 213.946L274.119 189.494L309.315 134.055L325.621 108.297C327.836 104.854 329.867 100.914 332.627 97.9433C333.648 96.8445 335.927 96.9846 337.509 96.9685C341.71 96.9257 345.924 97.0444 350.141 97.02L392.909 96.9516L414.007 96.9399C416.267 96.9296 426.972 96.4535 428.451 97.6223C431.14 100.229 434.152 104.819 433.908 108.603C432.876 124.598 431.875 140.505 430.621 156.467L425.566 222.797L423.399 250.132C423.248 251.892 422.915 260.354 422.262 261.322C419.747 265.053 412.006 271.99 408.673 275.189C407.682 275.997 405.644 278.175 404.667 279.152C402.159 281.656 399.628 284.138 397.075 286.597L361.425 320.92C345.034 336.952 328.515 352.852 311.868 368.619C301.486 378.605 291.223 389.136 280.865 399.189C279.119 400.884 277.001 402.438 275.175 404.158L260.67 417.829C257.911 420.471 254.283 424.278 251.228 426.589C250.743 426.955 248.665 427.297 248.215 426.975C243.8 423.803 239.273 418.788 235.451 415.163L194.803 376.045L127.349 311.554C111.409 296.547 95.6694 281.327 80.1357 265.899C79.0947 264.859 75.6245 261.187 75.4327 259.835C74.8754 255.907 75.0211 251.435 74.7809 247.435C74.3119 239.624 73.721 231.857 73.2238 224.055C72.9759 220.163 73.0842 216.149 72.816 212.25L67.2672 138.799L65.478 115.376C64.8143 105.486 63.8922 106.433 69.157 97.7407C67.6574 97.2017 66.8613 96.9929 66.3213 95.3059C65.6025 93.0604 65.3125 90.1982 66.2591 87.9787C66.5549 87.2851 67.4004 87.2141 68.0379 87.0411ZM84.6062 227.666C85.0127 232.638 85.0808 238.043 85.2694 243.058C91.081 245.291 97.7838 253.136 102.301 257.574C103.318 258.573 102.063 260.407 100.654 260.837C98.9186 260.741 97.562 259.219 96.4109 258.01C92.9226 254.345 89.5849 250.78 85.7166 247.516C85.6498 250.474 85.8466 253.231 86.0351 256.174C88.2581 259.524 93.4389 263.74 96.5577 266.736L118.006 287.395L198.042 364.019C204.87 370.55 211.688 378.186 218.508 384.57C222.905 389.048 229.883 396.032 234.65 399.999C234.11 398.968 230.579 392.577 229.967 391.928C227.504 386.552 223.549 382.529 219.491 378.402C215.985 374.824 212.443 371.282 208.864 367.777C200.565 359.623 192.451 351.351 184.219 343.137C182.827 341.665 179.008 338.521 180.776 336.269C182.995 333.444 189.81 341.426 191.478 343.073C196.37 347.941 201.227 352.843 206.049 357.781C209.119 360.927 212.857 365.135 216.358 367.656C213.363 361.507 209.347 354.484 205.108 349.119C203.028 346.681 200.722 344.456 198.551 342.096C188.999 331.7 178.616 322.1 168.651 312.108C164.903 308.349 169.433 305.798 171.767 308.443C178.643 316.234 185.966 323.663 193.819 330.508C190.959 323.865 186.48 316.298 182.701 310.177C181.003 307.428 179.34 303.57 177.274 301.158C171.378 294.279 164.567 288.463 158.111 282.234L126.753 251.771C117.37 242.817 107.939 233.899 98.6857 224.815C93.7117 219.931 88.7329 214.629 83.4022 210.164C83.5909 212.681 83.3644 220.424 84.596 221.715C88.5315 225.838 94.4235 231.381 98.4864 235.306L136.459 272.332C142.565 278.274 148.891 283.928 154.827 290.054C156.241 291.513 158.681 294.997 155.171 295.547C153.835 295.146 153.271 294.597 152.288 293.618C148.66 290.005 145.081 286.296 141.342 282.8C128.534 270.898 115.938 258.77 103.56 246.422L91.3856 234.5C89.0034 232.123 87.1272 229.961 84.6062 227.666ZM302.152 333.233C302.22 333.194 302.289 333.156 302.356 333.115C305.01 331.477 308.284 327.348 310.583 325.049C314.066 321.565 317.74 318.269 321.047 314.611C323.003 312.448 325.867 308.398 328.293 306.897C328.864 306.544 329.515 306.366 330.186 306.509C330.843 306.649 331.269 307.064 331.6 307.623C331.958 308.228 332.008 309.233 331.772 309.878C330.926 312.187 299.617 342.094 295.143 347.274C292.316 350.545 290.119 354.478 287.746 358.082C284.933 362.353 281.74 366.408 279.66 371.111L302.978 347.92C307.104 343.746 311.344 339.699 315.395 335.449C315.645 335.186 316.672 334.685 317.008 334.694C320.351 334.792 318.959 338.753 317.521 340.093C314.545 342.865 311.639 345.542 308.807 348.395L281.444 375.836C279.969 377.302 275.635 381.035 274.71 382.234C270.486 387.709 265.848 394.923 262.708 401.017C268.899 395.116 275.417 389.52 281.513 383.504C282.518 382.513 283.598 381.359 284.626 380.426L309.044 356.855C311.18 354.82 313.454 352.903 315.583 350.86L379.657 288.473C384.974 283.222 390.424 278.129 395.914 273.064C398.658 270.532 401.309 267.358 403.982 264.722C406.7 262.043 409.565 259.812 412.023 256.85C412.046 253.898 412.245 251.077 412.278 248.201C412.196 248.24 412.113 248.279 412.031 248.317C407.493 251.211 404.302 256.15 400.148 259.515C399.748 259.839 398.79 259.932 398.369 259.725C394.384 257.768 399.041 254.205 400.276 253.008C404.499 248.911 408.553 244.972 412.865 241.083C413.258 236.576 413.535 232.01 414.099 227.533C407.237 235.126 399.606 241.858 392.264 248.928L362.886 277.649L349.222 291.17C347.41 292.95 344.513 296.127 342.524 297.347C340.993 296.359 338.915 294.924 340.718 292.831C342.223 291.082 344.21 289.337 345.884 287.716L359.859 274.364C363.398 270.924 366.782 267.206 370.346 263.783C372.908 261.323 375.546 258.983 378.113 256.515L399.133 236.283C402.907 232.713 410.048 225.152 414.122 222.708C414.377 220.924 415.82 211.111 414.938 210.2C412.438 212.893 409.18 215.826 406.506 218.469L385.494 238.992C373.019 251.07 360.64 263.299 348.212 275.424C342.695 280.806 337.141 286.203 331.606 291.57C329.897 293.227 327.09 294.476 325.848 295.871C323.889 298.07 322.088 301.902 320.421 304.542L311.276 319.021C308.077 324.194 305.742 328.27 302.152 333.233ZM331.227 285.383C338.75 279.08 347.775 269.308 354.966 262.217L380.658 237.308C386.779 231.344 392.267 225.517 398.74 219.723C404.569 214.505 409.512 208.718 415.847 203.836C416.799 199.555 417.459 189.06 417.689 184.302L417.354 184.544C414.232 186.829 411.278 189.879 408.659 192.73C407.537 193.952 406.277 195.812 404.972 196.778C404.547 197.092 403.895 197.182 403.378 197.103C402.597 196.983 401.979 196.594 401.533 195.938C401.246 195.516 401.188 195.019 401.334 194.525C401.961 192.402 412.53 182.052 414.827 180.899C415.743 180.439 416.898 180.383 417.905 180.267C418.016 177.812 420.02 165.745 418.897 164.67C410.535 172.984 402.788 181.413 394.686 189.951C388.661 196 382.044 201.766 376.292 208.041C374.785 209.686 372.351 214.608 371.08 216.605C367.631 222.028 364.746 227.688 361.697 233.318L361.975 233.096C363.987 231.472 366.725 228.537 368.58 226.629C371.549 223.529 374.563 220.473 377.622 217.461C379.149 215.929 382.08 212.161 384.167 212.269C387.855 213.982 383.782 217.654 382.246 219.014C380.067 220.943 377.938 223.233 375.875 225.313L361.195 240.001C355.986 245.156 353.337 247.111 350.093 253.93C348.443 257.398 344.847 261.639 343.182 265.283C342.123 267.253 337.647 274.294 337.05 275.89C335.052 279.011 333.253 282.214 331.227 285.383ZM385.642 192.751C389.153 189.259 394.581 182.748 398.146 179.808C402.07 175.733 406.03 171.693 410.026 167.688C412.83 164.842 415.783 160.693 419.826 160.112C420.284 155.868 420.835 152.237 421.099 147.943C419.938 149.118 418.801 150.312 417.693 151.517C416.145 153.202 412.447 158.906 410.144 159.138C409.28 158.942 409.202 159.001 408.593 158.34C407.855 156.253 410.581 153.414 411.901 151.898C414.918 148.429 417.178 145.226 421.586 143.535C421.532 142.127 421.475 140.704 421.591 139.298C421.734 137.571 423.097 130.273 422.186 129.156C422.168 129.133 422.141 129.118 422.119 129.098C420.71 131.814 417.93 135.678 416.183 138.77L395.816 174.528C392.114 180.985 388.76 185.546 385.642 192.751ZM76.5049 127.405C76.8088 131.119 77.0772 140.238 78.1481 143.416C83.1083 147.09 86.9099 152.13 90.8057 156.932L90.6101 157.216C89.9978 158.091 89.9116 158.349 89.0231 158.839C85.9577 159.123 82.0193 151.063 78.9839 149.291C77.9375 150.445 80.0608 166.241 80.2732 168.752C80.5513 172.039 80.7412 176.506 81.0979 179.8C84.9442 181.414 87.6884 184.248 90.5158 187.244C92.3872 189.227 97.4138 193.136 96.4804 195.912C94.6363 197.897 92.6261 195.732 91.229 194.355L81.6875 184.87L81.7385 185.258C82.2111 188.965 82.1369 201.628 83.6291 203.751C86.768 208.216 95.0324 215.146 99.1991 219.122L132.114 250.685L152.827 270.861C154.59 272.606 163.551 282.14 165.147 282.358C165.101 281.397 163.648 279.577 163.188 278.612C158.653 269.115 152.574 260.497 147.526 251.317C145.739 248.062 141.09 240.648 138.705 238.114C137.718 237.886 135.366 238.189 134.809 237.707C128.597 232.333 122.994 226.13 117.125 220.371C115.392 218.672 112.216 216.08 116.022 214.363C118.821 214.513 132.633 230.404 136.264 232.89C132.137 224.547 126.316 213.815 121.099 206.022C117.744 201.012 109.988 195.305 105.851 190.676C98.938 183.808 92.5027 176.564 85.1876 170.087C83.4047 168.508 79.4874 165.628 82.0156 163.122C82.6875 162.904 83.49 162.778 84.0761 163.229C86.6637 165.219 89.515 168.265 91.8047 170.566C96.3233 175.152 100.891 179.69 105.508 184.177C107.727 186.332 110.311 189.022 112.679 190.922C109.125 183.295 105.361 178.174 101.293 171.274C95.4853 161.271 89.8429 151.174 84.368 140.985C83.4181 139.231 77.4558 127.872 76.5049 127.405Z"/><path fill="#FAF0CA" d="M339.134 107.276C341.906 107.308 344.818 107.689 347.663 107.665C358.769 107.574 369.916 107.389 381.016 107.303L420.82 107.252C417.366 114.066 413.094 120.598 409.516 127.347C405.124 135.631 400.835 144.002 396.179 152.143C393.082 157.559 389.213 162.576 386.46 168.217C384.379 172.488 382.118 176.427 379.778 180.547C374.898 189.139 369.035 197.235 364.583 206.051C362.038 211.165 358.708 215.97 355.853 220.888C352.268 227.064 348.535 233.219 344.944 239.374L307.105 304.52C306.262 305.967 305.286 307.552 304.545 309.041C298.328 321.532 290.445 333.152 283.263 345.101C280.075 350.273 277.311 356.234 273.735 361.139C266.469 371.105 261.371 382.132 254.996 392.633C253.076 395.794 251.521 399.183 249.34 402.201C243.108 392.245 237.395 381.452 231.28 371.337L216.309 346.702C214.765 344.216 212.654 341.649 211.22 339.155C209.117 335.497 207.126 331.718 205.043 328.038C203.43 325.188 201.359 322.355 199.799 319.534C197.622 315.6 195.706 311.485 193.442 307.562C190.901 303.16 188.256 298.848 185.668 294.467C181.638 287.81 178.049 280.86 174.148 274.142C167.646 262.941 160.13 252.453 154.18 240.909C152.167 237.004 149.224 233.138 147.147 229.215C144.127 223.513 140.809 218.005 137.592 212.42C135.411 208.561 133.603 204.536 131.297 200.587L90.5867 130.245C87.9334 125.702 85.2176 121.196 82.4399 116.728C80.8049 114.126 77.9525 110.05 76.8555 107.324C95.8294 106.993 115.151 107.551 134.127 107.472C142.533 107.437 151.668 107.881 160.008 107.298C161.254 109.111 162.536 111.721 163.825 113.727L181.273 141.175C185.735 148.199 190.194 155.035 194.962 161.848C197.243 165.109 199.011 169.399 201.268 172.811C205.44 179.121 209.807 185.434 213.801 191.856L235.919 227.326C239.756 233.54 242.898 240.337 247.632 246.006C249.156 247.83 251.922 245.93 252.882 244.379C257.432 237.021 261.518 229.318 266.16 222.026L320.592 136.968C324.867 130.361 328.883 123.06 333.267 116.446C335.145 113.611 336.923 110.26 338.937 107.54L339.134 107.276Z"/><path fill="#F4E2C5" d="M147.731 187.146C146.194 184.84 144.875 182.035 143.29 179.815C139.533 174.55 136.409 169.167 133.122 163.625C131.303 160.556 128.397 157.377 126.372 154.301C122.937 149.087 119.401 143.92 115.905 138.748C113.699 135.524 110.819 131.831 109.021 128.405C108.665 127.727 108.939 126.945 109.247 126.295C111.323 124.965 126.67 125.715 130.076 125.693L143.712 125.526C145.13 125.512 151.945 125.289 152.65 125.976C155.527 128.779 158.346 133.916 160.667 137.284C163.778 141.749 166.798 146.276 169.727 150.861C170.854 152.617 173.803 156.786 174.052 158.601C176.045 160.891 181.966 173.324 183.877 173.826C187.36 175.951 196.159 191.681 199.065 195.728C201.181 198.675 205.203 204.563 206.519 207.705L206.603 207.911C208.447 209.493 218.81 224.941 218.846 228.643C218.849 228.949 218.805 229.248 218.752 229.554L218.084 230.013C221.77 236.674 226.406 242.308 230.364 248.798C231.705 250.997 233.261 252.947 234.312 255.321L232.678 256.948C233.067 258.385 234.193 259.603 235.06 260.825C238.485 265.654 241.001 271.074 244.011 276.16C244.69 277.308 245.719 279.528 246.488 280.475C246.597 276.45 246.006 269.394 247.023 265.739C247.536 264.367 247.898 263.195 249.543 263.922C250.27 264.918 250.25 265.735 249.911 266.861L250.297 268.119C251.421 267.587 252.705 265.701 253.615 264.685C259.298 258.341 263.935 250.715 267.784 243.095C268.54 244.046 262.342 252.272 262.554 253.901C263.655 253.919 263.974 254.465 264.887 254.252C264.956 254.077 265.028 253.903 265.105 253.731C266.447 250.71 278.075 231.915 279.686 231.278C281.805 228.313 283.474 226.119 286.184 230.425C286.977 229.648 289.896 224.614 290.754 223.352C292.356 220.995 299.471 212.242 298.938 210.003C298.284 209.306 298.466 209.52 297.408 209.221C296.844 208.922 296.302 208.585 295.785 208.211C295.025 207.656 294.953 207.416 294.833 206.609C295.399 204.826 296.573 202.962 297.519 201.331C303.141 191.634 308.905 181.213 315.769 172.298C317.875 173.147 318.555 173.701 320.157 175.178C320.626 174.776 323.099 170.209 323.426 169.487C324.211 167.751 328.359 161.799 328.268 160.287C325.803 160.499 325.506 159.806 324.023 158.107C325.267 155.918 327.636 152.952 329.489 150.086C334.275 142.762 338.848 134.752 344.393 128.017C345.012 127.265 355.395 127.323 357.195 127.261L378.752 126.525C381.131 126.452 386.719 125.993 388.784 126.518C389.492 127.562 389.622 128.218 388.887 129.371C386.933 132.636 384.199 135.648 382.172 138.839C377.634 145.984 372.75 152.753 367.862 159.654C364.682 164.143 362.335 169.659 359.126 174.247C356.51 177.988 353.445 181.762 351.454 185.851C353.449 187.952 354.852 189.001 357.237 190.639C359.92 187.165 365.501 174.687 368.063 173.472C368.744 173.147 369.533 173.137 370.222 173.445C371.252 173.902 372.182 175.388 371.47 176.408C368.182 181.122 365.329 186.613 362.802 191.765C357.789 201.988 355.29 194.655 349.143 190.844L348.831 190.653C345.31 194.369 341.169 203.028 338.002 207.726C331.375 217.554 325.197 226.696 319.318 237.021C321.697 238.827 323.266 240.36 325.851 242.03C330.966 235.72 335.252 225.414 340.524 219.04C343.392 217.041 345.316 220.364 343.944 222.617C341.203 227.118 330.831 246.513 326.76 248.126C324.321 248.107 318.959 242.609 316.618 240.652C314.791 242.737 312.122 247.045 310.389 249.557C305.165 257.161 300.024 264.823 294.968 272.54C297.447 274.648 300.129 276.761 302.666 278.818C304.001 275.33 310.951 263.711 313.167 260.107C314.021 260.157 318.611 260.46 317.924 262.202C316.683 265.037 314.678 268.253 312.971 270.862C310.549 274.567 307.234 282.635 303.541 284.6C301.495 284.488 294.755 278.086 291.885 276.839C287.361 281.712 282.761 289.642 279.349 295.271C277.455 298.395 274.26 301.947 272.174 305.149C270.31 308.01 268.769 311.179 266.41 313.582C262.677 314.574 256.464 314.26 252.248 314.73C252.176 322.676 252.571 331.776 252.725 339.814C254.85 339.753 257.464 339.446 259.617 339.249C262.244 334.541 265.399 328.984 268.432 324.531C273.628 316.901 279.171 309.713 283.56 301.532C284.89 299.052 288.878 298.914 289.469 301.661C287.512 305.254 284.144 310.502 281.746 314.046C275.492 323.287 269.194 332.502 263.363 342.074C262.937 342.773 262.453 343.325 261.62 343.502C258.658 344.129 255.524 344.356 252.487 344.559C252.252 349.543 252.747 381.108 251.169 382.55C250.701 382.977 249.947 383.184 249.321 383.188C248.42 383.195 247.558 382.82 246.948 382.156C245.342 380.391 246.24 368.391 246.167 365.376C246.002 358.564 245.971 351.575 246.037 344.757C242.879 344.761 239.699 344.806 236.548 344.635C234.579 343.036 233.293 339.784 231.956 337.568C228.603 331.279 223.828 325.602 220.098 319.66C216.025 313.171 212.127 307.175 207.68 300.903C208.495 299.704 209.821 297.97 211.291 298.495C212.773 299.217 215.028 301.944 215.879 303.33C221.444 312.391 227.453 321.086 233.432 329.862C235.656 333.126 237.349 336.704 239.623 339.946L239.873 340.299C242.047 340.002 244.026 339.806 246.212 339.612C246.311 334.376 245.899 330.495 245.647 325.392C245.502 322.47 245.74 318.164 245.7 314.975C244.239 314.994 233.728 315.349 233.048 314.563C231.302 312.543 228.862 308.62 227.28 306.277L216.086 289.912C212.879 285.275 209.842 281.668 206.167 277.411C203.617 279.161 199.275 283.515 196.399 284.09C195.668 284.236 195.224 284.125 194.619 283.714C193.479 282.936 192.535 281.827 191.717 280.724C190.294 278.806 181.615 265.213 181.561 263.856C181.529 263.039 181.961 262.112 182.606 261.604C183.138 261.184 183.663 260.969 184.35 261.096C186.818 261.549 194.825 275.941 196.771 278.647C198.947 276.554 201.297 274.583 203.586 272.608C201.211 269.283 198.999 265.511 196.605 262.143C194.782 259.579 192.855 257.081 191.056 254.516C187.802 249.794 184.614 245.025 181.494 240.212C178.312 242.799 174.354 247.351 171.097 249.003C168.408 246.1 154.781 223.831 153.724 219.841C153.535 219.126 153.515 218.384 154.003 217.78C154.388 217.302 154.993 216.988 155.611 217.013C158.494 217.131 167.211 233.497 169.175 236.731C170.221 238.455 171.346 240.086 172.565 241.692C174.347 240.079 176.274 239.124 178.289 237.214C176.925 233.1 174.656 229.903 172.484 226.155C165.837 214.684 156.877 202.908 150.577 191.302C147.826 193.138 140.344 200.941 137.897 196.025C134.61 189.423 130.704 183.287 126.976 176.933C126.43 176.004 125.432 174.469 126.529 173.563C131.271 169.772 136.279 183.482 138.358 186.398C139.413 187.878 140.609 190.157 141.6 191.678C143.637 190.111 145.591 188.576 147.731 187.146Z"/><path fill="#F4E2C5" d="M116.862 131.221C127.532 130.776 139.661 131.042 150.486 131.011C151.769 133.572 153.362 135.532 154.731 137.906C158.561 144.534 162.73 150.973 167.248 157.155C169.589 160.358 170.876 161.416 174.052 158.601C176.045 160.891 181.966 173.324 183.877 173.826C187.36 175.951 196.159 191.681 199.065 195.728C201.181 198.675 205.203 204.563 206.519 207.705L206.603 207.911C208.447 209.493 218.81 224.941 218.846 228.643C218.849 228.949 218.805 229.248 218.752 229.554L218.084 230.013C221.77 236.674 226.406 242.308 230.364 248.798C231.705 250.997 233.261 252.947 234.312 255.321L232.678 256.948C233.067 258.385 234.193 259.603 235.06 260.825C238.485 265.654 241.001 271.074 244.011 276.16C244.69 277.308 245.719 279.528 246.488 280.475C246.539 282.329 245.602 286.53 245.459 289.192C245.1 295.867 246.042 303.525 245.65 309.98C242.602 309.997 239.516 310.076 236.465 310.132C234.634 308.241 231.025 303.055 229.294 300.74C221.311 290.063 214.066 278.593 206.468 267.597C204.022 264.056 201.613 261.231 199.195 257.859C196.836 254.391 194.813 250.551 192.407 247.127C186.308 238.45 180.432 229.93 175.356 220.586C174.062 218.204 171.542 215.023 169.963 212.65L158.232 194.641C155.326 190.116 152.935 184.877 149.905 180.472C140.691 167.078 132.367 153.148 123.107 139.782C121.098 136.882 118.884 134.141 116.862 131.221Z"/><path fill="#0D3B66" d="M183.877 173.826C187.36 175.951 196.159 191.681 199.065 195.728C201.181 198.675 205.203 204.563 206.519 207.705L206.603 207.911C201.803 213.65 198.254 203.723 195.77 200.006C190.699 192.42 185.486 184.76 180.706 177.031C179.867 175.675 182.873 174.112 183.877 173.826Z"/><path fill="#0D3B66" d="M232.678 256.948C231.658 257.493 231.426 257.712 230.326 257.57C228.428 256.642 220.065 242.202 218.193 239.698C217.087 238.219 212.527 231.465 211.817 229.856C211.811 229.256 211.896 228.728 212.375 228.322C215.359 225.791 216.351 227.839 218.084 230.013C221.77 236.674 226.406 242.308 230.364 248.798C231.705 250.997 233.261 252.947 234.312 255.321L232.678 256.948Z"/><path fill="#0D3B66" d="M147.731 187.146C146.194 184.84 144.875 182.035 143.29 179.815C139.533 174.55 136.409 169.167 133.122 163.625C131.303 160.556 128.397 157.377 126.372 154.301C122.937 149.087 119.401 143.92 115.905 138.748C113.699 135.524 110.819 131.831 109.021 128.405C108.665 127.727 108.939 126.945 109.247 126.295C111.323 124.965 126.67 125.715 130.076 125.693L143.712 125.526C145.13 125.512 151.945 125.289 152.65 125.976C155.527 128.779 158.346 133.916 160.667 137.284C163.778 141.749 166.798 146.276 169.727 150.861C170.854 152.617 173.803 156.786 174.052 158.601C170.876 161.416 169.589 160.358 167.248 157.155C162.73 150.973 158.561 144.534 154.731 137.906C153.362 135.532 151.769 133.572 150.486 131.011C139.661 131.042 127.532 130.776 116.862 131.221C118.884 134.141 121.098 136.882 123.107 139.782C132.367 153.148 140.691 167.078 149.905 180.472C152.935 184.877 155.326 190.116 158.232 194.641L169.963 212.65C171.542 215.023 174.062 218.204 175.356 220.586C180.432 229.93 186.308 238.45 192.407 247.127C194.813 250.551 196.836 254.391 199.195 257.859C201.613 261.231 204.022 264.056 206.468 267.597C214.066 278.593 221.311 290.063 229.294 300.74C231.025 303.055 234.634 308.241 236.465 310.132C239.516 310.076 242.602 309.997 245.65 309.98C246.042 303.525 245.1 295.867 245.459 289.192C245.602 286.53 246.539 282.329 246.488 280.475C246.597 276.45 246.006 269.394 247.023 265.739C247.536 264.367 247.898 263.195 249.543 263.922C250.27 264.918 250.25 265.735 249.911 266.861L250.297 268.119C250.5 272.344 250.369 276.302 250.922 280.536C251.109 282.78 252.419 284.861 252.484 287.099C252.6 291.08 252.884 295.31 252.614 299.28C252.368 302.899 252.181 306.15 252.266 309.765C255.555 309.71 259.563 309.345 262.986 309.208C264.946 307.332 267.401 303.511 269.051 301.204C274.019 294.264 278.53 286.822 283.427 279.845C303.457 251.504 322.752 222.649 341.291 193.31L360.713 162.847C367.542 152.095 373.838 141.851 381.916 131.935C375.955 132.131 369.599 131.9 363.579 132.03C358.307 132.145 352.295 132.425 347.093 132.136C342.54 139.814 337.714 147.326 332.625 154.658C331.219 156.639 329.596 158.419 328.268 160.287C325.803 160.499 325.506 159.806 324.023 158.107C325.267 155.918 327.636 152.952 329.489 150.086C334.275 142.762 338.848 134.752 344.393 128.017C345.012 127.265 355.395 127.323 357.195 127.261L378.752 126.525C381.131 126.452 386.719 125.993 388.784 126.518C389.492 127.562 389.622 128.218 388.887 129.371C386.933 132.636 384.199 135.648 382.172 138.839C377.634 145.984 372.75 152.753 367.862 159.654C364.682 164.143 362.335 169.659 359.126 174.247C356.51 177.988 353.445 181.762 351.454 185.851C353.449 187.952 354.852 189.001 357.237 190.639C359.92 187.165 365.501 174.687 368.063 173.472C368.744 173.147 369.533 173.137 370.222 173.445C371.252 173.902 372.182 175.388 371.47 176.408C368.182 181.122 365.329 186.613 362.802 191.765C357.789 201.988 355.29 194.655 349.143 190.844L348.831 190.653C345.31 194.369 341.169 203.028 338.002 207.726C331.375 217.554 325.197 226.696 319.318 237.021C321.697 238.827 323.266 240.36 325.851 242.03C330.966 235.72 335.252 225.414 340.524 219.04C343.392 217.041 345.316 220.364 343.944 222.617C341.203 227.118 330.831 246.513 326.76 248.126C324.321 248.107 318.959 242.609 316.618 240.652C314.791 242.737 312.122 247.045 310.389 249.557C305.165 257.161 300.024 264.823 294.968 272.54C297.447 274.648 300.129 276.761 302.666 278.818C304.001 275.33 310.951 263.711 313.167 260.107C314.021 260.157 318.611 260.46 317.924 262.202C316.683 265.037 314.678 268.253 312.971 270.862C310.549 274.567 307.234 282.635 303.541 284.6C301.495 284.488 294.755 278.086 291.885 276.839C287.361 281.712 282.761 289.642 279.349 295.271C277.455 298.395 274.26 301.947 272.174 305.149C270.31 308.01 268.769 311.179 266.41 313.582C262.677 314.574 256.464 314.26 252.248 314.73C252.176 322.676 252.571 331.776 252.725 339.814C254.85 339.753 257.464 339.446 259.617 339.249C262.244 334.541 265.399 328.984 268.432 324.531C273.628 316.901 279.171 309.713 283.56 301.532C284.89 299.052 288.878 298.914 289.469 301.661C287.512 305.254 284.144 310.502 281.746 314.046C275.492 323.287 269.194 332.502 263.363 342.074C262.937 342.773 262.453 343.325 261.62 343.502C258.658 344.129 255.524 344.356 252.487 344.559C252.252 349.543 252.747 381.108 251.169 382.55C250.701 382.977 249.947 383.184 249.321 383.188C248.42 383.195 247.558 382.82 246.948 382.156C245.342 380.391 246.24 368.391 246.167 365.376C246.002 358.564 245.971 351.575 246.037 344.757C242.879 344.761 239.699 344.806 236.548 344.635C234.579 343.036 233.293 339.784 231.956 337.568C228.603 331.279 223.828 325.602 220.098 319.66C216.025 313.171 212.127 307.175 207.68 300.903C208.495 299.704 209.821 297.97 211.291 298.495C212.773 299.217 215.028 301.944 215.879 303.33C221.444 312.391 227.453 321.086 233.432 329.862C235.656 333.126 237.349 336.704 239.623 339.946L239.873 340.299C242.047 340.002 244.026 339.806 246.212 339.612C246.311 334.376 245.899 330.495 245.647 325.392C245.502 322.47 245.74 318.164 245.7 314.975C244.239 314.994 233.728 315.349 233.048 314.563C231.302 312.543 228.862 308.62 227.28 306.277L216.086 289.912C212.879 285.275 209.842 281.668 206.167 277.411C203.617 279.161 199.275 283.515 196.399 284.09C195.668 284.236 195.224 284.125 194.619 283.714C193.479 282.936 192.535 281.827 191.717 280.724C190.294 278.806 181.615 265.213 181.561 263.856C181.529 263.039 181.961 262.112 182.606 261.604C183.138 261.184 183.663 260.969 184.35 261.096C186.818 261.549 194.825 275.941 196.771 278.647C198.947 276.554 201.297 274.583 203.586 272.608C201.211 269.283 198.999 265.511 196.605 262.143C194.782 259.579 192.855 257.081 191.056 254.516C187.802 249.794 184.614 245.025 181.494 240.212C178.312 242.799 174.354 247.351 171.097 249.003C168.408 246.1 154.781 223.831 153.724 219.841C153.535 219.126 153.515 218.384 154.003 217.78C154.388 217.302 154.993 216.988 155.611 217.013C158.494 217.131 167.211 233.497 169.175 236.731C170.221 238.455 171.346 240.086 172.565 241.692C174.347 240.079 176.274 239.124 178.289 237.214C176.925 233.1 174.656 229.903 172.484 226.155C165.837 214.684 156.877 202.908 150.577 191.302C147.826 193.138 140.344 200.941 137.897 196.025C134.61 189.423 130.704 183.287 126.976 176.933C126.43 176.004 125.432 174.469 126.529 173.563C131.271 169.772 136.279 183.482 138.358 186.398C139.413 187.878 140.609 190.157 141.6 191.678C143.637 190.111 145.591 188.576 147.731 187.146Z"/><path fill="#F4E2C5" d="M247.023 265.739C247.536 264.367 247.898 263.195 249.543 263.922C250.27 264.918 250.25 265.735 249.911 266.861C248.782 266.314 248.224 266.119 247.023 265.739Z"/><path fill="#0D3B66" d="M315.769 172.298C317.875 173.147 318.555 173.701 320.157 175.178C314.706 183.185 309.89 191.53 304.472 199.549C302.577 202.354 300.691 208.102 297.408 209.221C296.844 208.922 296.302 208.585 295.785 208.211C295.025 207.656 294.953 207.416 294.833 206.609C295.399 204.826 296.573 202.962 297.519 201.331C303.141 191.634 308.905 181.213 315.769 172.298Z"/><path fill="#0D3B66" d="M279.686 231.278C281.805 228.313 283.474 226.119 286.184 230.425C285.167 233.459 283.259 235.401 281.477 238.123C279.399 241.352 277.347 244.597 275.323 247.86C273.837 250.256 272.548 252.677 271.155 255.13C270.318 256.603 269.346 257.329 267.595 257.023C263.125 256.241 266.524 251.859 267.811 249.619C271.457 243.274 276.14 237.7 279.686 231.278Z"/><path fill="#0D3B66" d="M201.915 307.375C206.247 308.444 222.459 337.412 226.542 342.839C231.516 349.449 236.836 359.316 242.043 366.296C241.416 368.164 241.381 368.798 239.734 369.894C239.317 369.771 238.906 369.639 238.505 369.468C234.431 367.735 218.397 339.347 214.884 333.969C212.612 330.487 210.278 327.048 207.881 323.651C205.671 320.527 201.012 313.943 199.561 310.463C200.246 308.741 200.418 308.456 201.915 307.375Z"/><path fill="#0D3B66" d="M297.094 306.907C298.872 307.281 300.681 309.005 299.702 310.765C294.958 319.292 288.726 326.898 283.466 335.108C282.106 337.014 281.111 339.645 279.742 341.501C274.536 348.556 270.426 356.261 265.567 363.539C263.943 365.972 262.169 368.991 260.237 371.147C254.495 370.85 257.809 366.881 259.425 364.043C262.662 358.325 266.079 352.71 269.671 347.208C272.838 342.424 276.053 337.989 279.237 333.056L289.276 317.509C291.017 314.818 294.524 308.531 297.094 306.907Z"/><path fill="#0D3B66" d="M159.874 117.925C160.586 118.049 161.543 118.432 161.923 119.106C166.791 127.735 173.12 135.476 177.909 144.073C179.346 146.652 179.273 148.299 176.67 149.838C175.811 149.597 175.036 149.324 174.505 148.545C169.045 140.527 163.545 132.314 158.548 123.998C157.004 121.429 156.969 119.295 159.874 117.925Z"/><path fill="#0D3B66" d="M336.547 120.169C338.088 120.341 340.329 121.875 339.639 123.245C336.702 129.08 326.627 146.623 322.272 150.024C321.688 150.026 321.224 149.879 320.748 149.539C320.064 149.051 319.346 148.255 319.351 147.357C319.365 145.192 332.668 124.742 334.857 121.858C335.347 121.211 335.92 120.682 336.547 120.169Z"/><path fill="#0D3B66" d="M100.485 129.936C100.535 129.944 100.585 129.945 100.633 129.959C103.707 130.834 113.679 147.811 115.7 151.049C116.883 152.944 118.273 154.77 119.333 156.735C119.645 157.313 119.881 157.804 119.597 158.458C119.215 159.337 118.196 159.741 117.383 160.1C115.281 159.644 112.353 154.613 111.029 152.715C107.408 147.547 103.848 142.336 100.349 137.085C98.3145 133.992 96.2339 131.883 100.485 129.936Z"/><path fill="#0D3B66" d="M301.687 175.9C302.574 176.038 304.128 176.558 304.795 177.242C304.959 177.41 305.282 177.931 305.191 178.185C303.391 183.192 291.763 201.275 288.875 203.813C287.272 203.416 285.854 203.001 285.368 201.307C286.031 198.739 299.611 177.589 301.687 175.9Z"/><path fill="#0D3B66" d="M275.021 218.01C276.469 217.866 277.269 217.87 278.544 218.555C278.765 218.858 279.125 219.2 279.024 219.45C277.157 224.104 265.794 242.474 263.178 245.189C262.231 245.57 260.744 245.76 260.029 244.787C259.712 244.356 259.62 243.637 259.662 243.088C259.754 241.906 260.183 240.679 260.72 239.621C262.56 236.285 272.937 219.73 275.021 218.01Z"/><path fill="#0D3B66" d="M221.882 217.744C223.364 217.802 223.766 217.939 224.624 219.2C228.393 224.741 231.841 230.47 235.763 235.915C237.012 237.65 238.341 239.588 239.279 241.5C240.583 244.157 240.451 245.223 237.541 246.038C233.886 244.259 221.13 223.653 219.166 219.21C219.993 218.682 221 218.198 221.882 217.744Z"/><path fill="#0D3B66" d="M396.429 127.415C397.954 127.739 400.201 128.749 399.413 130.759C398.216 133.816 395.796 136.755 393.982 139.532C392.19 142.303 390.442 145.102 388.741 147.93C387.136 150.592 385.476 153.707 383.903 156.435C383.697 156.793 382.5 157.491 382.076 157.746C380.458 157.167 379.213 156.581 379.06 154.722C379.657 152.868 394.902 128.583 396.429 127.415Z"/><path fill="#0D3B66" d="M196.132 175.965C197.357 175.963 198.339 176.455 199.101 177.419C202.525 181.753 205.161 186.812 208.157 191.445C209.963 194.238 211.861 196.775 213.521 199.623C214.557 201.401 213.83 202.462 212.412 203.563C211.365 203.662 210.229 203.806 209.548 202.87C206.857 199.168 194.324 181.188 194.596 177.772C194.977 176.822 195.318 176.656 196.132 175.965Z"/><path fill="#0D3B66" d="M351.583 113.855C359.26 114.137 367.164 113.658 374.838 114.153C376.065 114.232 377.173 114.354 377.74 115.481C377.603 118.426 375.571 118.32 373.312 118.4C365.131 118.45 356.919 118.625 348.767 118.631C347.399 118.632 347 116.207 347.441 114.999C348.574 113.864 349.974 113.983 351.583 113.855Z"/><path fill="#0D3B66" d="M127.279 114.334C132.475 114.691 137.926 114.186 143.065 114.75C146.232 115.098 145.896 118.378 142.921 119.384C137.3 119.077 131.611 119.455 126.087 118.887C124.675 118.741 124.6 116.307 125.197 115.188C125.986 114.509 126.21 114.544 127.279 114.334Z"/><path fill="#0D3B66" d="M102.614 113.759C106.016 113.675 110.793 114.361 114.375 114.384C115.794 114.393 117.563 114.802 118.549 115.93C119.006 117.442 118.555 118.203 117.193 118.856C115.21 119.09 95.3197 119.585 102.614 113.759Z"/><path fill="#0D3B66" d="M387.695 114.11C391.027 113.917 398.261 113.83 401.327 114.495C400.673 116.128 400.51 116.494 399.515 117.949C398.469 118.004 397.364 118.015 396.313 118.043C393.09 118.066 384.044 118.822 382.198 116.369C382.087 115.522 382.057 115.943 382.401 115.073C383.424 114.056 386.117 114.189 387.695 114.11Z"/><path fill="#0D3B66" d="M248.523 255.255C252.598 255.787 253.229 259.452 249.512 261.403C245.01 261.313 244.99 256.965 248.523 255.255Z"/><path fill="#0D3B66" d="M109.962 266.638C112.659 266.664 115.177 270.086 117.097 272.006C120.119 275.051 123.171 278.066 126.253 281.051C128.766 283.474 131.394 285.689 133.911 288.089C141.305 295.189 148.641 302.348 155.92 309.566C161.41 315.012 167.541 319.974 172.823 325.694C174.491 327.5 173.936 328.291 172.25 329.648C171.555 329.654 170.607 329.604 170.032 329.138C163.597 323.914 158.164 317.629 152.262 311.884L122.745 283.63C118.324 279.339 113.787 275.195 109.585 270.675C108.139 269.12 108.733 267.938 109.962 266.638Z"/><path fill="#0D3B66" d="M386.581 267.677C387.803 267.972 388.497 268.187 389.117 269.324C389.316 271.368 387.549 272.659 386.273 274.028C380.415 280.317 373.674 285.847 367.583 291.836L343.629 315.515C341.138 318.001 331.821 327.902 329.794 328.968C328.009 328.608 326.648 327.831 327.055 325.726C328.584 323.696 333.556 319.045 335.668 316.959L354.379 298.663L374.779 278.874C376.883 276.812 384.93 268.625 386.581 267.677Z"/><path fill="#0D3B66" d="M103.616 202.395C105.875 202.453 108.126 204.612 108.517 206.79C108.746 208.067 108.25 208.645 107.528 209.614C103.48 209.651 100.327 205.678 103.616 202.395Z"/><path fill="#0D3B66" fill-opacity="0.11764706" d="M130.27 224.641C131.07 225.505 131.41 225.73 131.739 226.815C130.697 226.12 130.41 225.919 130.27 224.641Z"/><path fill="#0D3B66" d="M392.351 202.665C393.614 202.749 394.685 202.949 395.404 204.107C395.818 204.787 395.911 205.614 395.657 206.368C395.243 207.598 394.308 208.263 393.191 208.772C388.79 210.057 388.268 205.139 392.351 202.665Z"/><path fill="#F4D35E" fill-opacity="0.011764706" d="M218.508 384.57C220.639 384.553 223.615 387.945 225.141 389.372C226.857 390.978 226.973 392.005 229.441 392.345L229.967 391.928C230.579 392.577 234.11 398.968 234.65 399.999C229.883 396.032 222.905 389.048 218.508 384.57Z"/><path fill="#0D3B66" d="M65.9667 70.1898C70.4505 70.1526 70.0426 77.7558 68.1649 79.6182C66.6908 79.4755 66.3474 79.1463 65.184 78.2727C64.8554 75.3183 64.0915 72.5674 65.9667 70.1898Z"/><path fill="#0D3B66" d="M429.783 86.9191C432.888 87.0066 432.481 90.3176 432.21 92.667C432.01 94.3976 431.703 95.4992 430.234 96.5311C429.827 96.4907 428.986 96.4408 428.783 96.1523C427.047 93.6798 428.14 88.7469 429.783 86.9191Z"/><path fill="#0D3B66" d="M430.903 70.4263C435.045 70.7867 433.096 77.4074 431.402 79.4729C428.699 79.6749 428.603 76.6231 428.867 74.6658C429.151 72.5668 429.167 71.783 430.903 70.4263Z"/><path fill="#0D3B66" fill-opacity="0.062745102" d="M210.325 164.423C211.493 164.962 211.613 165.376 211.826 166.557C211.248 166.18 210.708 165.077 210.325 164.423Z"/><path fill="#0D3B66" fill-opacity="0.098039217" d="M238.631 208.884L238.995 208.698C239.543 209.122 239.532 209.536 239.817 210.319C239.186 209.958 239.009 209.511 238.631 208.884Z"/></svg>